<?xml version="1.0" encoding="utf-8"?>
<!-- Generator: Adobe Illustrator 18.1.0, SVG Export Plug-In . SVG Version: 6.00 Build 0)  -->
<!DOCTYPE svg PUBLIC "-//W3C//DTD SVG 1.1//EN" "http://www.w3.org/Graphics/SVG/1.1/DTD/svg11.dtd">
<svg version="1.1" id="Livello_1" xmlns="http://www.w3.org/2000/svg" xmlns:xlink="http://www.w3.org/1999/xlink" x="0px" y="0px"
	 width="1600px" height="800px" viewBox="379 195.5 1600 800" enable-background="new 379 195.5 1600 800" xml:space="preserve">
<g>
	<g>
		<g>
			<path fill="#343478" d="M766.1,515.3c0,22-14.6,44.9-47.2,44.9c-32.7,0-47.2-23-47.2-44.9c0-22,14.6-44.9,47.2-44.9
				C751.6,470.4,766.1,493.4,766.1,515.3z M695.2,515.3c0,11.2,4,31.1,23.7,31.1s23.7-19.9,23.7-31.1s-4-31.1-23.7-31.1
				C699.2,484.2,695.2,504.1,695.2,515.3z"/>
			<path fill="#343478" d="M824.8,471.7c26.3,0,36.6,14.3,36.6,25.4c0,9.5-7.8,18.4-19.4,22l22.8,39.8h-24.1l-20.6-36.2h-17.5v36.2
				h-23v-87.2H824.8z M812.6,507.9c10,0,25.3,0.4,25.3-10.4c0-12-15.4-11-26.8-11h-8.5v21.4H812.6z"/>
			<path fill="#343478" d="M876.6,558.9v-87.2h23v87.2H876.6L876.6,558.9z"/>
			<path fill="#343478" d="M986.6,485.9l-48.3,58.3h48.3V559H912v-13.7l48.3-58.7h-46.6v-14.8h73v14.1H986.6z"/>
			<path fill="#343478" d="M1070.4,485.9l-48.3,58.3h48.3V559h-74.6v-13.7l48.2-58.8h-46.6v-14.8h73V485.9z"/>
			<path fill="#343478" d="M1175.1,515.3c0,22-14.6,44.9-47.2,44.9c-32.7,0-47.2-23-47.2-44.9c0-22,14.6-44.9,47.2-44.9
				C1160.5,470.4,1175.1,493.4,1175.1,515.3z M1104.2,515.3c0,11.2,4,31.1,23.7,31.1s23.7-19.9,23.7-31.1s-4-31.1-23.7-31.1
				C1108.2,484.2,1104.2,504.1,1104.2,515.3z"/>
			<path fill="#343478" d="M1222.2,471.7l34.3,57.5h0.3v-57.5h23v87.2h-24.6l-43.3-70h-0.3v70h-23v-87.2H1222.2z"/>
			<path fill="#343478" d="M1371.2,486.5h-29.7v72.4h-23v-72.4h-29.7v-14.8h82.4V486.5z"/>
			<path fill="#343478" d="M1380.2,558.9v-87.2h23v87.2H1380.2L1380.2,558.9z"/>
		</g>
		<circle fill="none" cx="1561.8" cy="570.1" r="124.6"/>
		<path fill="#343478" d="M1629.3,541.2c4.7,0.8,9.2,0.3,10-3.4c0.6-2.8-1.2-5-5.4-6c-2.7-0.7-6.8-1.1-7-3.6c-0.2-2,3.7-4.5,5.2-6.1
			c1.9-1.9,3-3.9,2.9-6.2c-0.2-3.1-3.4-6.4-8.6-6c-6.5,0.6-5,5.4-6.6,8.2c-2.2,4-5.8,1.6-7.6-1.1c-2.1-3.1-0.9-6.9-2.6-9.9
			c-4.4-7.6-15.3-4.3-14.1,3c0.6,3.3,2.4,6.7,3.8,9.7c2.7,5.5,8.2,12,4,17.8c-2,2.7-5.3,4.2-9.9,3.9c-10.7-0.7-20.5-10.2-32-6.8
			c-4.6,1.3-5.6,3.7-11.1,2.1c-10.2-3-17.6-14.3-20.6-20.9c-1.2-2.8,0.9-5.6,2.5-8.3c2.9-4.8,7.9-9.3,9.6-14.4
			c1.1-3.3-1.2-8.4-6.8-9.3c-5.9-0.8-8.9,3.4-10.1,6.6c-0.8,2.4-1,3.7-2.8,5.4c-7.2,7.3-14.9-10.5-16.8-12.8
			c-4.4-5.3-10.9-12.9-21.4-11.9c-5.3,0.5-6.9,3.4-5,7c2.1,3.9,6.2,8.2,10.8,11c4.7,2.8,11.6,5.8,12.3,10.4c1.2,7.6-22-1.4-21.2,7.5
			c0.4,4.7,11.2,5.7,16.2,7c13.9,3.5,20.9,11.6,28.3,19.7c1.9,2.1,3.5,4.2,4.4,6.4c0.1,0.3,0.2,0.5,0.3,0.8
			c-5.7,2.3-9.9,6.6-10.7,11.9c-0.1,0.6-0.1,1.2-0.1,1.8l-0.1,0.1l0.5,7.1c-0.1,0.8-0.2,1.6-0.2,2.4c0,4.1,0.4,8.2,1.2,12.1l2.4,36
			c-0.1,1,0,2,0.2,2.9v0.3h0.1c1.2,5.3,5.9,9.5,12.4,11.2c-0.4,0.6-0.7,1.3-0.9,2c-1.6,3.3-4.2,6.1-6.4,9.2
			c-5.2,7.4-15.1,1.3-22.9-0.4c-7.4-1.6-14.2,0-19.6,3.5c-3.9,2.5-11.8,8.1-10,12.1c1.7,3.7,9,4,13.7,4.9c1.7,0.3,4.7,0.7,6.7,1.1
			c3,0.6,5.7,0.6,8.7,1.3c5.8,1.5,12.7,2.2,18.9,2.5c5.4,0.3,11.5,0.9,14.5-2.8c2.9-3.5,3.7-8.6,5.7-12.5c2.1-4.1,3.5-8.1,5.7-12.1
			c1.8-3.2,3.3-6.5,5-9.7l34.9-4.6c0.6,1.2,1.2,2.4,1.7,3.4c3.1,5.9,5.7,11.9,9,17.7c1.6,2.8,2,6.9,7.5,5.6
			c4.9-1.2,7.9-3.8,11.5-6.1c3.3-2.1,6.6-4.2,9.7-6.5c3.6-2.7,3.9-5.1,3.7-8.6c-0.2-3.1-2.2-5.8-7.1-3.3c-3.3,1.6-5,4.3-8,6.1
			c-4.2,2.5-6.7,2.8-9.1-0.9c-1.7-2.5-4.1-5.6-6.1-8.1c-0.2-0.2-0.4-0.5-0.7-0.8l14.5-1.9c8.4-1.1,15.4-6.5,16.5-13.5
			c0.1-0.9,0.2-1.9,0.1-2.8l0.1-0.1l-6.2-44.7l-0.2-0.2c-1.3-5.1-6.1-9.3-12.6-10.9c1.2-0.9,2.5-1.7,3.8-2.6
			C1621.9,540.3,1623.8,540.2,1629.3,541.2z M1615.8,592L1615.8,592c0,0.6,0,1.2-0.1,1.7c-0.6,4.1-5.3,7.2-10.9,7.7l-47.3,4.9
			c-0.6,0.1-1.2,0.2-1.8,0.2h-0.1l0,0c-0.7,0-1.5,0-2.3,0c-5.7-0.4-10.2-3.4-11.2-7l0,0v-0.2c-0.1-0.6-0.2-1.1-0.2-1.7l-3.3-33.6
			h0.1c0-0.3,0-0.7,0.1-1.1c0.7-4.6,6.6-8,13.3-7.8c0.3,0,0.5,0,0.8,0c0.5,0,0.9,0.1,1.3,0.1l46.2,3.8l0,0c5.3,0.6,9.4,3.3,10.5,6.7
			l0.2,0.1L1615.8,592z"/>
		<g>
			<path fill="#343478" d="M1351.8,649.7h29.7v-72.4h23v72.4h29.7v14.8h-82.4L1351.8,649.7L1351.8,649.7z"/>
			<path fill="#343478" d="M1342.8,577.3v87.2h-23v-87.2H1342.8z"/>
		</g>
	</g>
	
		<text transform="matrix(1 0 0 1 669.7245 811.4151)" fill="#343478" font-family="'HelveticaNeue-UltraLight'" font-size="80.0642">la forza del contenuto</text>
</g>
</svg>
